<svg xmlns="http://www.w3.org/2000/svg" id="doctor-checking-patient-with-stethoscope" width="2000" height="2000" viewBox="0 0 2000 2000">
  <desc>
    the doctor Checking the patient using a stethoscope, the sitting patient is Checking by the doctor using a stethoscope
  </desc>
  <g>
    <path d="m940.7,1381.07h0c0,20.01,16.22,36.23,36.23,36.23l135.86,4.53v72.08c0,3.96,3.21,7.17,7.17,7.17h78.5c3.96,0,7.17-3.21,7.17-7.17v-126.43s-264.93,13.59-264.93,13.59Z" style="fill:#458189"></path>
    <path d="m995.04,1182.94l25.58-.48,3.99-192.68c.34-28.48,23.53-51.39,52.01-51.39h109.47s93.91,0,93.91,0c34.02,0,61.66,27.46,61.88,61.48l.91,178.45-152.18,1.82c-43.14,0-64.24,27.2-64.24,70.34l-4.21,130.58h-5.18s-176.28,0-176.28,0v-73.13c0-80.85,2.55-124.44,54.34-125.01Z" style="fill:#f3c97a"></path>
    <rect width="40.76" height="76.99" x="1132.93" y="1501.08" style="fill:#46a4ae" transform="rotate(-180 1153.31 1539.575)"></rect>
    <path d="m1062.22,1578.07h175.11c19.59,0,35.47,15.88,35.47,35.47v53.59h-20.57v-53.59s-88.5,0-88.5,0v53.59h-19.53v-53.59s-99.73,0-99.73,0v53.59h-17.74v-53.59c0-19.59,15.88-35.47,35.48-35.47Z" style="fill:#f3dc7a"></path>
    <circle cx="1268.04" cy="1673.95" r="19.39" style="fill:#535887"></circle>
    <circle cx="1153.31" cy="1673.95" r="19.39" style="fill:#535887"></circle>
    <circle cx="1031.79" cy="1673.6" r="19.39" style="fill:#535887"></circle>
  </g>
  <g>
    <circle cx="1388.66" cy="700.54" r="104.37" style="fill:#f3dc7a"></circle>
    <circle cx="1388.66" cy="700.54" r="91.27" style="fill:#ec9a96"></circle>
    <path d="m1386.96,656.24c2.74,14.97,3.37,30.17,3.47,45.34,0,0,0,1.47,0,1.47l-1.05,1.01c-5.34,5.19-11.26,10.71-16.93,15.5-5.88,4.98-11.87,9.8-18.33,14.07,7.74-11,16.93-20.93,26.33-30.5,0,0,4.08-4.03,4.08-4.03l-1.05,2.48c.1-15.17.73-30.38,3.47-45.34h0Z" style="fill:#f3dd7a"></path>
  </g>
  <g>
    <rect width="819.29" height="684.83" x="180.81" y="254.54" rx="14.04" ry="14.04" style="fill:#535887"></rect>
    <rect width="763" height="633.23" x="207.39" y="279.56" rx="14.04" ry="14.04" style="fill:#fff"></rect>
    <path d="m717.88,279.56s-407.3,213.42-437.79,633.23h675.05c8.42,0,15.24-6.83,15.24-15.24V279.56h-252.51Z" style="fill:#eef3f4"></path>
    <rect width="786.45" height="283" x="199.57" y="453.11" style="fill:none;stroke-miterlimit:10;stroke:#545a88;stroke-width:12.15px"></rect>
    <rect width="257.98" height="656.93" x="463.81" y="267.57" style="fill:none;stroke-miterlimit:10;stroke:#545a88;stroke-width:12.15px"></rect>
  </g>
  <g>
    <rect width="346.82" height="352.35" x="1467.81" y="1341.23" style="fill:#58c5d2"></rect>
    <circle cx="1641.06" cy="1392.59" r="14.35" style="fill:#231c1b"></circle>
    <circle cx="1641.06" cy="1481.45" r="14.35" style="fill:#231c1b"></circle>
    <circle cx="1641.06" cy="1570.31" r="14.35" style="fill:#231c1b"></circle>
    <circle cx="1641.06" cy="1659.18" r="14.35" style="fill:#231c1b"></circle>
    <rect width="347.44" height="17.88" x="1467.19" y="1341.23" style="fill:#46a4ae"></rect>
    <rect width="347.44" height="6.17" x="1467.19" y="1433.78" style="fill:#46a4ae"></rect>
    <rect width="347.44" height="6.17" x="1467.19" y="1518.32" style="fill:#46a4ae"></rect>
    <rect width="347.44" height="6.79" x="1467.19" y="1605.95" style="fill:#46a4ae"></rect>
    <polygon points="1820.49 1341.23 1461.33 1341.23 1454.85 1320.23 1826.97 1320.23 1820.49 1341.23" style="fill:#231c1b"></polygon>
  </g>
  <path d="M372.42 1483.54s-33.42 33.95-31.3 63.65c0 0-16.8-150.29 5.83-192.02M279.32 1420.68s56.23 66.31 48.54 128.63" style="stroke-width:2.6px;stroke:#1f1b1c;fill:none;stroke-miterlimit:10"></path>
  <g>
    <polygon points="377.19 1700.5 278.53 1700.26 267.39 1576.9 390.72 1576.9 377.19 1700.5" style="fill:#46a4ae"></polygon>
    <rect width="134.91" height="32.89" x="261.55" y="1544.02" style="fill:#46a4ae"></rect>
    <path d="m267.39,1576.9h58.7s-57.85,9.44-56.75,21.65l-1.96-21.65Z" style="fill:#458189"></path>
  </g>
  <g>
    <path d="m321.4,1494.26s32.32-148.94-148.37-213.29c0,0,.02,7.15,1.66,18.91,6.95,50.13,31.58,96.12,68.99,130.2,21.34,19.43,51,45.24,77.72,64.18Z" style="fill:#f3dc7a"></path>
    <path d="m182.43,1296.96c26.17,27.97,51.01,57.18,74.62,87.34,18.91,24.69,37.71,49.79,52,77.52.85,1.7,2.34,4.72,3.08,6.5,2.04,4.34,3.61,8.9,4.89,13.51-3.03-9.09-7.55-17.56-12.41-25.76-14.68-24.63-32.13-47.47-49.62-70.17-23.5-30.19-47.93-59.67-72.57-88.94h0Z" style="fill:#46a4ae"></path>
  </g>
  <g>
    <path d="m335.13,1420.68s-74.63-132.88,79.2-247.46c0,0,2.08,6.84,3.97,18.56,8.07,49.96-1.96,101.15-27.72,144.72-14.69,24.84-35.47,58.22-55.45,84.18Z" style="fill:#f3dc7a"></path>
    <path d="m407.19,1189.06c-30.49,53.92-65.61,127-71.06,188.87-.84,9.63-.86,19.33.18,28.99-1.63-9.58-1.87-19.35-1.45-29.07,3.62-62.59,38.9-136.22,72.33-188.78h0Z" style="fill:#46a4ae"></path>
  </g>
  <g>
    <path d="m348.98,1517.87s-18.32-150.63,135.18-188.51c0,0,5.3,11.32,1.17,41.19-5.72,41.32-33.82,76.23-67.32,101.09-19.1,14.18-45.56,32.9-69.03,46.23Z" style="fill:#f3dc7a"></path>
    <path d="m478.59,1339.16c-25.08,24.66-49.32,50.28-71.61,77.49-16.47,20.44-32.57,41.68-43.44,65.7-3.57,7.99-6.4,16.39-7.42,25.16.21-4.4.97-8.78,2.09-13.06,14.64-52.91,79.23-118.85,120.39-155.28h0Z" style="fill:#46a4ae"></path>
  </g>
  <g>
    <polygon points="1626.71 1219.98 1626.71 1306.76 1580.71 1306.76 1566.64 1320.23 1700.13 1320.23 1681.95 1307.15 1640.91 1307.15 1640.91 1219.98 1626.71 1219.98" style="fill:#ec9a96"></polygon>
    <polygon points="1692.6 1219.98 1574.16 1219.98 1599.31 1114.31 1664.98 1114.57 1692.6 1219.98" style="fill:#f3dc7a"></polygon>
  </g>
  <path d="m1127.39,964.93s-48.99,10.86-53.51,16.02c-4.73,5.41-10.06-3.44-13.97,70.87-4.46,84.71-7.93,225.8-16.25,253.45l40.92,3.24s43-327.65,42.81-343.58Z" style="fill:#46a4ae"></path>
  <path d="m1016.64,1168.15s-68.72,19.92-76.43,27.16c-15.2,14.26-17.86,41.66-17.9,44.17-.06,4.13,3.25.8,5.2,3.57.38.54.75.95,1.11,1.27.93.83,2.25,1.08,3.43.68.91-.31,3.16-4.19,7.03-4.11,0,0,6.11.35,9.63-4.66,7.88-11.22,22.53-10.74,23.86-10.69,10.21.37,12.23-.34,19.03-1.27,12.18-1.67,27.61-12.91,44.44-25.48,0,0-16.55-22.51-19.4-30.63Z" style="fill:#ec9a96"></path>
  <path d="m986.46,1176.24s19.44,34.34,22.58,52.43l141.92-52.21s23.41-14.83,7.56-40.69c-15.85-25.86-95.36,3.43-95.36,3.43l-76.7,37.04Z" style="fill:#46a4ae"></path>
  <path d="m948.48,1281.01l21.13,341.65s55.82,11.91,60.31,3.66c4.48-8.25,26.18-248.21,16.83-338.34,0,0-80.44-38.96-94.91-17.69" style="fill:#231c1b"></path>
  <path d="m1140.59 1174.88-182.58 80.08s-24.54 17.17 5.15 44.28c0 0 34.62 42.65 71.98 39.17 0 0 19.39-27.68 69.12-29.9 45.98-2.05 117.68-95.05 117.68-95.05l-81.34-38.58ZM1035.14 1391.52l12.31 285.93s55.51 11.29 60.2 4.4c4.69-6.9 33.6-220.54 26.52-297.18 0 0-80.57-24.18-95.58-6.45" style="fill:#231c1b"></path>
  <path d="m1158.31,1213.11l-123.27,113.42c-2.17,2.84.71,48.22.23,51.76-1.17,8.62,1.26,23.07,27.82,29.44,0,0,24.82,8.6,55.85-12.51,0,0,79.4-45.34,121.86-71.32,39.26-24.02,7.38-116.33,7.38-116.33l-89.86,5.54Z" style="fill:#231c1b"></path>
  <path d="m1101.45,985.54s-28.22-12.91-39.66,30.34c-11.44,43.25-26.76,137.08-26.76,137.08,0,0,14.02,20.89,38.1,13.67,3.4-1.02,6.28-3.56,7.48-6.9,14.06-39.2,25.42-80.46,34.77-123.38,0,0,14.11-41.65-13.93-50.82Z" style="fill:#46a4ae"></path>
  <g>
    <path d="m1135.17,978.55c30.8,10.5,49.36-17.4,49.36-17.4l34.04,10.97-28.94,241.02c-87.38,6.69-120.43-7.26-120.43-7.26,0,0,5.88-9.27,10.99-110.26,5.11-101,46-130.69,46-130.69l4.5-.67s-4.41,11.26,4.47,14.29Z" style="fill:#eef3f4"></path>
    <path d="m1195.69,964.93s-26.52,40.92-27.92,106.04c-1.14,53.26-.42,193.49-.11,242.83.07,11.48,8.98,21,20.43,21.73,17.58,1.13,45.32-2.59,78.25-26.47l-17.95-319.5s-15.28-17.38-52.7-24.64Z" style="fill:#46a4ae"></path>
  </g>
  <g>
    <path d="m1127.51,944.15s3.84,14.57.39,22.17c-8.96,19.74,25.66,39.38,55.04-2.33,0,0-7.23-19.46-7.21-50.57.02-31.11-36.8-19.44-36.8-19.44,0,0-23.18,10.5-11.41,50.17Z" style="fill:#ec9a96"></path>
    <path d="m1164.04,941.52c-.54-5.28-.92-11.14-.99-17.53-.01-.77-.02-1.57-.02-2.41h0s0-.01,0-.01c0-.64-.04-1.23-.07-1.83-.01-.22-.01-.46-.03-.68-.02-.24-.04-.47-.06-.71-.05-.58-.12-1.15-.2-1.7-.03-.22-.06-.44-.1-.66,0,0,0-.02,0-.03-.13-.71-.27-1.41-.44-2.06,0,0,0,0,0-.01-.21-.78-.45-1.51-.72-2.21-.09-.24-.2-.45-.3-.68-.19-.45-.39-.9-.61-1.32-.13-.25-.27-.48-.41-.71-.21-.36-.43-.72-.66-1.06-.16-.23-.33-.45-.49-.66-.24-.31-.48-.61-.74-.9-.18-.2-.36-.4-.55-.59-.27-.27-.54-.52-.82-.77-.12-.11-.25-.21-.37-.32-.07-.06-.15-.13-.22-.19-.3-.24-.61-.46-.92-.68-.15-.11-.31-.22-.46-.32-.05-.03-.09-.06-.14-.09-.35-.22-.72-.42-1.08-.62-.18-.1-.35-.2-.53-.29-.55-.27-1.11-.52-1.68-.74,0,0,0,0,0,0-.54-.21-1.09-.4-1.65-.57-.55-.17-1.12-.31-1.68-.44-.53-.12-1.07-.22-1.61-.31-.18-.03-.36-.05-.54-.08-.26-.04-.52-.07-.78-.1-.1-.01-.21-.03-.31-.04-.21-.02-.42-.04-.64-.06-.24-.02-.48-.04-.72-.06-.09,0-.18-.02-.28-.02-.22-.01-.44-.02-.66-.03-.17,0-.33-.01-.5-.02-.16,0-.32-.01-.48-.02-.22,0-.43,0-.65,0-.33,0-.66,0-.99,0-.2,0-.4,0-.6.01-.22,0-.44.02-.65.03-.14,0-.27.01-.41.02-.16,0-.32.02-.48.03-2.6.17-4.97.54-6.89.91-5.32,7.05-10.19,20.22-3.39,43.14,0,0,2.47,9.37,1.66,17,13.08-2.01,28.63-7.84,34.87-19.63Z" style="fill:#231c1b"></path>
  </g>
  <path d="m1201.07,890.88s-2.4,34.49-24.33,42.73-71.59-45.22-41.35-97.65c30.24-52.43,74.4-8.66,65.68,54.92Z" style="fill:#231c1b"></path>
  <g>
    <path d="m1186.98,911.96c-3.23,14.99-12.09,20.65-20.75,27.03-8.66,6.38-28.22,8.35-42.12,6.84-13.9-1.51-25.4-16.15-31.45-30.48-6.06-14.33,1.24-71.53,1.24-71.53l98.65-12.86-8.37,55.24s4.34-16.01,20.41-13.96c16.07,2.05,8.61,28.89-1.03,35.69-9.64,6.8-16.59,4.03-16.59,4.03Z" style="fill:#ec9a96"></path>
    <path d="M1137.79 863.55c-1.38-1.7-.9-3.32 1.16-3.54 3.68-.4 11.78 1.97 13.66 2.95 2.48 1.29 5.26 7.17 3.05 6.68-2.22-.49-4.09-3.42-7.01-3.71-2.92-.29-7.57-.33-10.28-1.81-.4-.22-.42-.36-.58-.56ZM1114.79 863.06c1.54-1.59 1.19-3.26-.86-3.67-3.66-.74-12.01.91-14 1.72-2.61 1.07-5.92 6.74-3.65 6.44 2.28-.29 4.41-3.07 7.37-3.1 2.96-.02 7.64.36 10.5-.89.42-.18.46-.33.63-.51Z" style="fill:#231c1b"></path>
    <path d="M1120.24 903.53c-3.52-1.38-10.51-8.41-3.66-10.33 6.85-1.92 8.45-6.49 7.21-13.06M1116.2 919.87s13.71-5.92 25.02-1.44" style="stroke:#1f1b1c;fill:none;stroke-miterlimit:10;stroke-linecap:round;stroke-width:1.74px"></path>
    <g>
      <ellipse cx="1106.1" cy="877.74" rx="5.71" ry="6.25" style="fill:#231c1b" transform="rotate(-79.27 1106.076 877.742)"></ellipse>
      <ellipse cx="1103.96" cy="879.1" rx="1.12" ry="1.26" style="fill:#f7f6f6" transform="rotate(-84.78 1103.914 879.106)"></ellipse>
    </g>
    <g>
      <ellipse cx="1143.85" cy="879.49" rx="5.71" ry="6.25" style="fill:#231c1b" transform="rotate(-79.27 1143.828 879.497)"></ellipse>
      <ellipse cx="1141.72" cy="880.85" rx="1.12" ry="1.26" style="fill:#f7f6f6" transform="rotate(-84.78 1141.666 880.86)"></ellipse>
    </g>
  </g>
  <path d="m1194.38,873.85s-10.24,3.63-8.93,18.99l-4.07.2.08-19.51s-12.81-11.41-14.63-23.03c0,0-5.48,7.37-27.8,7.78,0,0,11.36-6.78,12.42-13.92,0,0-55.18,34.69-87.77-3.39,0,0,23.4-.11,24.72-2.13,0,0-23.51-16.2-17.95-43.07,0,0,14.55,7.25,19.15,7.02,0,0-6.56-6.94-7.02-19.69,0,0,98.82,11.52,115.65,36.04,0,0,10.74-5.15,13.7-13.28,0,0,7.08,17.38-5.18,24.02,0,0,14.44,20.37,2.07,43.74,0,0-4.73-3.27-14.44.23Z" style="fill:#231c1b"></path>
  <g>
    <path d="m1126.37,1250.49c0-43.14,21.39-77.74,64.53-77.74h152.09s-1.11-172.88-1.11-172.88c-.22-34.02-27.86-61.48-61.88-61.48h40.25c46.43,0,84.06,37.64,84.06,84.06v310.78c0,46.43-37.64,84.06-84.06,84.06h-134.16c-28.65,0-53.94-14.34-69.11-36.23h5.18s4.21-130.58,4.21-130.58Z" style="fill:#f3dc7a"></path>
    <path d="m1362.94,1190.11l-24.15-17.36h-177.37c-29.18,0-49.44,60.26-49.44,89.44l-3.4,96.99c0,20.01,16.22,36.23,36.23,36.23h0l1.16-153.57c.22-28.82,23.67-52.06,52.5-52.01l164.47.28Z" style="fill:#f3c97a"></path>
  </g>
  <path d="m1275.91,1290.05s-33.85,17.61-37.14,21.98c-3.29,4.37-24.2,13.3-22.26,19.1,2.89,8.62,27.92-7.87,29.14-6.19,1.22,1.68-34.43,40.8-31.52,44.96,2.91,4.16,7.25,1.63,20.18-11.79,0,0-17.51,17.56-15.23,21.08s7.82,2.46,24.78-19.08c0,0-16.67,19.43-14.07,22.64,2.6,3.21,9.09-3.12,23.36-18.3,0,0-17.33,15.19-14.17,19.54s21.99-5.05,39.46-29.9c17.47-24.85,27.62-51.78,27.62-51.78l-30.16-12.25Z" style="fill:#ec9a96"></path>
  <path d="m1252.78,1304.08s34.6,6.78,48.41,15.65l53.93-140.45s4.86-24.43-21.95-28.63c-26.8-4.2-39.06,33.13-39.06,33.13l-41.34,120.3Z" style="fill:#46a4ae"></path>
  <path d="m1212.07,982.73s-36.88,13.76-8.3,62.79c28.58,49.03,98.06,142.01,98.06,142.01,0,0,35.93,19.26,51.03-8.82,2.13-3.96,2.3-8.77.51-12.9-21.93-50.47-49.03-103.39-81.94-151.9,0,0-25.99-48.14-59.35-31.18Z" style="fill:#46a4ae"></path>
  <g>
    <path d="m920.92,1697.75s-11.85-44.06,44.29-78.64c0,0-12.27-27.01,13.3-32.21,25.56-5.2,30.51,20.77,30.51,20.77,0,0,12.44-9.76,16.43-9.32,3.99.43,2.56-2.04,22.42,55l3.07,12.55-130.02,31.85Z" style="fill:#cb7c74"></path>
    <path d="m920.92,1697.75l130.02-31.85-3.07-12.55c-.29-.82-.55-1.59-.83-2.39l-126.91,31.09c-.86,9.53.79,15.69.79,15.69Z" style="fill:#535887"></path>
    <path d="M942.95 1636.61c12.55-5.65 27.18-3.84 38.09 4.48 1.3.99 2.61-1.19 1.32-2.18-10.09-7.69-23.17-9.94-35.15-6.52-1.59 1.42-3.06 2.84-4.47 4.27.07-.02.14-.02.21-.05ZM988.62 1630.6c1.36.92 2.67-1.26 1.32-2.17-9.11-6.14-19.97-6.82-30.55-5.52-1.57 1.08-3.08 2.16-4.53 3.25 11.49-2.05 23.73-2.32 33.76 4.45ZM963.71 1614.88c.27.94.55 1.76.78 2.42 11.46-3.11 24-.63 33.42 6.7 1.29 1.01 2.6-1.18 1.32-2.17-9.93-7.73-23.44-10.31-35.52-6.94Z" style="fill:#fff"></path>
  </g>
  <g>
    <path d="m986.88,1745.46s-2.12-43.63,57.45-64.56c0,0-5.98-27.77,19-27.43,24.97.34,24.32,25.65,24.32,25.65,0,0,13.62-6.59,17.27-5.38,3.64,1.22,2.81-1.39,9.77,56.03l.32,12.36-128.13,3.32Z" style="fill:#cb7c74"></path>
    <path d="m986.88,1745.46l128.13-3.32-.32-12.36c-.1-.83-.19-1.6-.29-2.4l-125.06,3.24c-2.75,8.74-2.45,14.84-2.45,14.84Z" style="fill:#535887"></path>
    <path d="M1019.94 1692.75c12.89-2.73 26.21 1.95 34.72 11.95 1.02 1.19 2.68-.58 1.68-1.77-7.87-9.25-19.65-14.02-31.56-13.26-1.77 1-3.44 2.04-5.05 3.08.07 0 .13.01.21 0ZM1063.89 1696.42c1.09 1.13 2.76-.64 1.68-1.77-7.27-7.6-17.29-10.45-27.46-11.38-1.69.69-3.32 1.39-4.9 2.12 11.17.42 22.67 2.67 30.68 11.03ZM1043.79 1676.64c.06.94.15 1.76.24 2.42 11.35-.57 22.59 4.29 29.9 13.07 1 1.2 2.67-.57 1.68-1.77-7.72-9.25-19.83-14.41-31.82-13.73Z" style="fill:#fff"></path>
  </g>
  <path d="M839.79 1628.04s28.23 32.15 46.87 35.1c44.24 7.01 35.87 35.64 35.87 35.64 0 0-130.47-6.88-137.57-6.9-.06 0-.11 0-.17 0-4.79 0-8.57-4.05-8.25-8.82 1.14-16.92 3.73-51.61 5.85-50.04 2.8 2.07 57.41-4.98 57.41-4.98ZM641.1 1605.73s5.84 42.39 19.76 55.12c33.05 30.23 10.28 49.51 10.28 49.51 0 0-105.07-77.66-110.98-81.58-.05-.03-.1-.06-.14-.09-3.99-2.65-4.92-8.1-2.02-11.91 10.27-13.49 31.56-41 32.47-38.53 1.19 3.27 50.64 27.49 50.64 27.49Z" style="fill:#535887"></path>
  <g>
    <path d="m854.39,934.6l41.8,63.25s10.99,18.57-1.99,32.78c-12.98,14.21-16.24,19.16-22.12,13.85-4.96-4.48-32.14-35.15-40.49-44.61-2.07-2.35-3.97-4.84-5.63-7.5-8.93-14.21-29.9-55.74,28.43-57.77Z" style="fill:#ec9a96"></path>
    <path d="m814.84,854.19s12.49,3.65,65.47,86.29c0,0-58.57,30.08-60.6,29.54-2.03-.53-33.25-127.29-4.87-115.83Z" style="fill:#46a4ae"></path>
    <path d="m819.71,970.03l36.03-16.42s-28.51-70.17-40.45-84.5c-11.94-14.33.41,1.51.41,1.51l4.02,99.41Z" style="fill:#458189"></path>
  </g>
  <g>
    <path d="m610.93,955.72l-27.9,65.84s-8.99,30.49,19.15,33.62c28.14,3.13,37.52-16.42,37.52-16.42l29.32-52.38-58.1-30.66Z" style="fill:#ec9a96"></path>
    <path d="m670.8,855.57c-12.46,15.48-35.42,45.75-67.05,94.65l62.54,47.88s56.96-97.03,31.05-140.69c-5.76-9.71-19.46-10.63-26.54-1.84Z" style="fill:#46a4ae"></path>
    <path d="m687.39,882.93s-28.18,106.47-32.07,106.79l10.96,8.39s47.27-80.88,37.81-120.65l-16.7,5.47Z" style="fill:#458189"></path>
  </g>
  <path d="m713.43,1098.18s-.62,54.31,26.54,131.71c27.16,77.41,26.36,167.94,26.36,167.94,0,0,3.66,14.96,26.23,19.98,13.15,2.93,32.7-9.35,46.73-20.11,10.83-8.3,14.06,3.66,12.58-9.91l-30.79-297.37s-102.57-40.15-107.66,7.76Z" style="fill:#231c1b"></path>
  <path d="m665.9,1095.27s-11.34,53.12,0,134.36c11.34,81.25,0,160.2,0,160.2,0,0-6.69,25.02,14.44,34.4,12.31,5.47,33.91-2.71,49.78-10.48,12.25-6,20.45-17.99,21.68-31.58l24.71-273.56s-96.16-59.3-110.62-13.34Z" style="fill:#231c1b"></path>
  <path d="m822.64,1096.28v6.43s-111.21,30.9-156.74-7.44v-4.85l156.74,4.69" style="fill:#eef3f4"></path>
  <g>
    <path d="m678.4,853.02s94.31-42.98,142.72,7.11c0,0,7.79,64.85,2.56,105.82-1.74,13.59-2.38,27.29-2.21,40.98l1.16,89.35s-125.86,25.02-156.74-5.86c0,0,7.41-49.96,10.85-82.26,1.4-13.11,1.36-26.32-.09-39.42-3.43-30.82-9.76-100.98,1.75-115.72Z" style="fill:#46a4ae"></path>
    <path d="m728.76,837.83l31.93,24.14s-8.42,34.4,0,43c8.42,8.6-55.38-31.21-50.65-62.71l18.71-4.43Z" style="fill:#eef3f4"></path>
    <path d="m759.97,865.22s7.37.7,12.86,1.25c5.86.59,12.12,30.94,12.12,30.94,0,0,26.06-34.06,9.09-55.08l-10.7-3.36s9.72,20.39-22.64,22.99l-.72,3.25Z" style="fill:#eef3f4"></path>
  </g>
  <path d="m723.66,779.65s.26,22.82,11.57,24.78c11.31,1.96,8.19-17.85,8.19-17.85,0,0-17.37-17.24-19.76-6.93Z" style="fill:#231c1b"></path>
  <g>
    <path d="m784.18,817.99s-3.84,14.57-.39,22.17c8.96,19.74-25.66,39.38-55.04-2.33,0,0,7.23-19.46,7.21-50.57-.02-31.11,36.8-19.44,36.8-19.44,0,0,23.18,10.5,11.41,50.17Z" style="fill:#ec9a96"></path>
    <path d="m746.49,811.53c.54-5.28,2.08-7.3,2.16-13.69.01-.77.02-1.57.02-2.41h0s0-.01,0-.01c0-.64.04-1.23.07-1.83.01-.22.01-.46.03-.68.02-.24.04-.47.06-.71.05-.58.12-1.15.2-1.7.03-.22.06-.44.1-.66,0,0,0-.02,0-.03.13-.71.27-1.41.44-2.06,0,0,0,0,0-.01.21-.78.45-1.51.72-2.21.09-.24.2-.45.3-.68.19-.45.39-.9.61-1.32.13-.25.27-.48.41-.71.21-.36.43-.72.66-1.06.16-.23.33-.45.49-.66.24-.31.48-.61.74-.9.18-.2.36-.4.55-.59.27-.27.54-.52.82-.77.12-.11.25-.21.37-.32.07-.06.15-.13.22-.19.3-.24.61-.46.92-.68.15-.11.31-.22.46-.32.05-.03.09-.06.14-.09.35-.22.72-.42,1.08-.62.18-.1.35-.2.53-.29.55-.27,1.11-.52,1.68-.74,0,0,0,0,0,0,.54-.21,1.09-.4,1.65-.57.55-.17,1.12-.31,1.68-.44.53-.12,1.07-.22,1.61-.31.18-.03.36-.05.54-.08.26-.04.52-.07.78-.1.1-.01.21-.03.31-.04.21-.02.42-.04.64-.06.24-.02.48-.04.72-.06.09,0,.18-.02.28-.02.22-.01.44-.02.66-.03.17,0,.33-.01.5-.02.16,0,.32-.01.48-.02.22,0,.43,0,.65,0,.33,0,.66,0,.99,0,.2,0,.4,0,.6.01.22,0,.44.02.65.03.14,0,.27.01.41.02.16,0,.32.02.48.03,2.6.17,4.97.54,6.89.91,5.32,7.05,10.19,20.22,3.39,43.14,0,0-2.29,10.69-1.49,18.32-13.08-2.01-29.97-12.99-36.2-24.79Z" style="fill:#231c1b"></path>
  </g>
  <g>
    <g>
      <path d="m729.04,780.18c.38,15.33,8.03,22.54,15.35,30.42,7.32,7.88,26.17,13.45,40.11,14.56,13.94,1.11,27.96-11.14,36.58-24.1,8.62-12.96,12.1-70.51,12.1-70.51l-94.53-31-2.06,55.83s-1.29-16.54-17.46-17.51c-16.17-.98-13.84,26.78-5.64,35.26,8.2,8.47,15.55,7.05,15.55,7.05Z" style="fill:#ec9a96"></path>
      <path d="M786.37 741.77c1.68-1.41 1.51-3.09-.48-3.7-3.54-1.08-11.94-.26-13.97.35-2.67.8-6.51 6.06-4.24 5.99 2.27-.07 4.65-2.6 7.58-2.34 2.92.26 7.5 1.08 10.44.13.43-.14.48-.28.68-.44ZM809.06 745.57c-1.22-1.85-.57-3.43 1.53-3.45 3.73-.04 11.63 3.13 13.43 4.3 2.36 1.54 4.57 7.72 2.38 7.01-2.18-.71-3.76-3.84-6.67-4.41-2.91-.57-7.57-1.07-10.15-2.83-.38-.26-.39-.4-.53-.62Z" style="fill:#231c1b"></path>
      <path d="M796.18 784.32c3.72-.7 11.89-6.31 5.52-9.47-6.37-3.16-7.09-7.95-4.66-14.18M797.1 801.13s-14.92 1.8-24.32-6.08" style="stroke:#1f1b1c;fill:none;stroke-miterlimit:10;stroke-linecap:round;stroke-width:1.74px"></path>
      <g>
        <ellipse cx="814.87" cy="761.61" rx="6.25" ry="5.71" style="fill:#231c1b"></ellipse>
        <ellipse cx="816.72" cy="763.35" rx="1.12" ry="1.26" style="fill:#f7f6f6" transform="rotate(-84.49 816.743 763.347)"></ellipse>
      </g>
      <g>
        <ellipse cx="777.45" cy="756.31" rx="6.25" ry="5.71" style="fill:#231c1b"></ellipse>
        <ellipse cx="779.3" cy="758.04" rx="1.12" ry="1.26" style="fill:#f7f6f6" transform="rotate(-84.49 779.317 758.04)"></ellipse>
      </g>
    </g>
    <path d="m718.05,738.31l-5.4-13.39,25.27-5.84-1.34,36.3s-1.31-15.58-18.53-17.07Z" style="fill:#231c1b"></path>
    <path d="m737.92,719.08s59.28,29.26,95.26,14.04l-1.67,17.47s25.53-10.41,15.37-35.43c0,0-13.7-48.73-63.17-54.33,0,0-62.97-8.18-75.7,43.24-.62,2.5-.53,5.12.28,7.56l4.77,14.5,24.88-7.05Z" style="fill:#231c1b"></path>
    <path d="m707.67,708.75s-.7,24.86,7.89,29.42h6.14l-14.03-29.42Z" style="fill:#231c1b"></path>
  </g>
  <path d="m716.84,767.32s-17.72,20.3-5.47,50.52c12.25,30.23,32.31,75.57,47.95,71.14,15.64-4.43,63.19-54.98,48.54-72.98" style="stroke-width:2.6px;stroke:#1f1b1c;fill:none;stroke-miterlimit:10"></path>
  <path d="M714.17 765.04c.07-2.82-.06-6.62 2.42-7.98 6.21-3.41 6.67-4.12 7.7.42 0 0 3.09 9.21-4.76 12.3-4.58 1.81-5.44-1.59-5.36-4.74ZM744.66 881.6s25.14-1.69 24.98 1.48c-.16 3.17-13.75 16.33-13.75 16.33 0 0-12.47-16.33-11.23-17.81Z" style="fill:#231c1b"></path>
  <path d="m581.09 1027.42-13.84 180.06s1.53 17.58 19.77 18.73 21.14-22.12 21.14-22.12l30.75-165.73s-8.34-22.93-25.02-27.1c-16.68-4.17-32.8 16.16-32.8 16.16ZM881.23 1048.2l151.47 24.9s17.65.08 20.45-17.99c2.81-18.06-20.1-23.07-20.1-23.07l-141.87-41.48s-23.6 6.22-29.27 22.45c-3.71 10.62 3.04 21.95 8.16 28.52 2.76 3.54 6.73 5.92 11.15 6.67Z" style="fill:#ec9a96"></path>
  <path d="m603.21,1196.47s17.24,34.84,17.31,40.4,11.9,25.49,6.81,29.09c-7.57,5.35-18.22-23.27-20.23-22.61-2.01.65,3.76,54.25-1.13,55.92-4.89,1.67-6.95-3.02-9.5-21.83,0,0,3.83,24.96-.16,26.49-3.99,1.53-7.9-2.68-8.9-30.59,0,0,2.02,25.99-2.05,27.07-4.07,1.08-5.59-8.03-8.19-29.09,0,0,5.11,22.91-.1,24.59-5.21,1.68-15.04-17.37-14.46-48.31.59-30.94,8.44-59.18,8.44-59.18l32.16,8.06Z" style="fill:#ec9a96"></path>
  <path d="m1106.73,1036.56s25.48-14.02,26.53,18.68c1.04,32.68-24.89,22.8-24.89,22.8,0,0-7.59-5.65-5.84-19.32,1.75-13.67,4.2-22.16,4.2-22.16Z" style="fill:#231c1b"></path>
  <path d="m1019.36,1037.89s74.31-15.37,81.06-7.05c3.21,3.95,7.39,7.32,10.9,9.77,3.44,2.4,5.09,6.68,4.02,10.74-.52,1.98-.54,3.89.75,4.87,2.65,2.02,3.08,10.36-7.39,13.65-2.81.88,1.67.48,1.42,2.67,0,0-4.33,7.66-17.24,6.5-12.91-1.17-77.65-4.15-80.35-15.23s6.83-25.92,6.83-25.92Z" style="fill:#ec9a96"></path>
  <path d="m756.78,889.29s-20.13,144.85,131.53,153.45c151.66,8.6,228.55,11.04,228.55,11.04" style="stroke-width:2.6px;stroke:#1f1b1c;fill:none;stroke-miterlimit:10"></path>
  <path d="M668.88 1360.68s-78.42 205.05-78.42 217.56 58.63 30.03 58.63 30.03c0 0 104.58-207.18 102.71-226.1 0 0-24.83-95.21-82.92-21.49ZM766.34 1397.83s6.63 219.44 11.45 230.98c4.82 11.54 65.68 5.12 65.68 5.12 0 0 16.69-231.48 7.68-248.22 0 0-59.59-78.3-84.8 12.11Z" style="fill:#231c1b"></path>
</svg>
