<svg xmlns="http://www.w3.org/2000/svg" id="medicine" viewBox="0 0 2500 2000">
  <rect width="2500" height="2000" style="fill:none"></rect>
  <path d="M592.27,1484.35a50.7,50.7,0,0,1-50.61-50.67v-71.51H642.94v71.51A50.65,50.65,0,0,1,592.27,1484.35Z" style="fill:#fa0"></path>
  <path d="M642.94 1362.17H541.66v-71.58a50.64 50.64 0 0 1 101.28 0ZM624.22 1435.92a50.7 50.7 0 0 1-50.67 50.61H502V1385.25h71.51A50.64 50.64 0 0 1 624.22 1435.92Z" style="fill:#ffc749"></path>
  <path d="M502,1385.25v101.28H430.46a50.64,50.64,0,0,1,0-101.28Z" style="fill:#fa0"></path>
  <path d="M1389.43,701.6v676a109,109,0,0,1-109,109H789.54a109,109,0,0,1-109-109v-676a34,34,0,0,1,34.06-34,34.08,34.08,0,0,0,24-10,32.76,32.76,0,0,0,9.51-19.08,24.24,24.24,0,0,0,.46-4.95V600.33a34,34,0,0,1,34.06-34h504.68a34,34,0,0,1,34,34v33.28a34,34,0,0,0,34,34,34,34,0,0,1,34.06,34Z" style="fill:#a1c180"></path>
  <rect width="598.81" height="506.35" x="735.6" y="821.68" rx="17.62" style="fill:#fff"></rect>
  <path d="M1230.38,1083.7a81.07,81.07,0,0,1-81,80.92H1035V1002.68h114.35A81,81,0,0,1,1230.38,1083.7Z" style="fill:#ffc749"></path>
  <path d="M1035,1002.68v161.94H920.56a81,81,0,0,1,0-161.94Z" style="fill:#fa0"></path>
  <circle cx="818.14" cy="896.54" r="36.88" style="fill:#233d4c"></circle>
  <path d="M1321.38,600.33v28.92l-573.2,9.31a24.24,24.24,0,0,0,.46-4.95V600.33a34,34,0,0,1,34.06-34h504.68A34,34,0,0,1,1321.38,600.33Z" style="fill:#609b88"></path>
  <rect width="708.85" height="105.67" x="680.58" y="513.47" rx="31.92" style="fill:#a1c180"></rect>
  <line x1="1556.77" x2="1556.77" y1="1370.41" y2="1486.53" style="fill:none;stroke:#233d4c;stroke-miterlimit:10;stroke-width:19.538453578949px"></line>
  <path d="M1629.42,683v610.78a43.79,43.79,0,0,1-8.63,26.09L1567.27,1392a13.11,13.11,0,0,1-21.07,0l-53.47-72.12a43.77,43.77,0,0,1-8.62-26.08V683Z" style="fill:#ececec"></path>
  <rect width="121.08" height="154.11" x="1496.22" y="528.88" style="fill:#ececec"></rect>
  <line x1="1629.42" x2="1568.6" y1="1244.1" y2="1244.1" style="fill:none;stroke:#233d4c;stroke-miterlimit:10;stroke-width:19.538453578949px"></line>
  <line x1="1629.42" x2="1568.6" y1="1157.42" y2="1157.42" style="fill:none;stroke:#233d4c;stroke-miterlimit:10;stroke-width:19.538453578949px"></line>
  <line x1="1629.42" x2="1568.6" y1="1070.73" y2="1070.73" style="fill:none;stroke:#233d4c;stroke-miterlimit:10;stroke-width:19.538453578949px"></line>
  <line x1="1629.42" x2="1568.6" y1="984.05" y2="984.05" style="fill:none;stroke:#233d4c;stroke-miterlimit:10;stroke-width:19.538453578949px"></line>
  <line x1="1629.42" x2="1568.6" y1="897.36" y2="897.36" style="fill:none;stroke:#233d4c;stroke-miterlimit:10;stroke-width:19.538453578949px"></line>
  <rect width="200.34" height="35.22" x="1456.6" y="665.38" rx="14.31" style="fill:#e0e0e0"></rect>
  <rect width="169.52" height="28.62" x="1472.01" y="514.57" rx="14.31" style="fill:#e0e0e0"></rect>
  <path d="M2120.11,1040.4v384.19a61.9,61.9,0,0,1-61.87,61.94H1779.16a61.92,61.92,0,0,1-61.93-61.94V1040.4a19.3,19.3,0,0,1,19.34-19.34,19.36,19.36,0,0,0,18.56-13.88,18.84,18.84,0,0,0,.78-5.47V982.83a19.35,19.35,0,0,1,19.34-19.35h286.83a19.31,19.31,0,0,1,19.34,19.35v18.88a19.35,19.35,0,0,0,19.35,19.35,19.34,19.34,0,0,1,19.34,19.34Z" style="fill:#a1c180"></path>
  <rect width="340.38" height="287.83" x="1748.48" y="1108.61" rx="10.02" style="fill:#fff"></rect>
  <circle cx="1795.4" cy="1151.16" r="20.96" style="fill:#ffc749"></circle>
  <path d="M1971.72 1307.26c0 23.08-17.32 43.91-39.18 50A54.28 54.28 0 0 1 1873 1334.8c-12.9-19.78-9.38-46-2.62-67.39 5.78-18.35 16.47-33.9 27-49.79 12.25-18.57 20.75-37.83 20.75-60.48 0 27.12 12.47 48 27 69.85C1961.35 1251.48 1971.72 1277.41 1971.72 1307.26ZM2081.42 982.83v16.28l-326.29 8.07a18.84 18.84 0 0 0 .78-5.47V982.83a19.35 19.35 0 0 1 19.34-19.35h286.83A19.31 19.31 0 0 1 2081.42 982.83Z" style="fill:#609b88"></path>
  <rect width="402.94" height="60.07" x="1717.2" y="933.41" rx="18.15" style="fill:#a1c180"></rect>
</svg>
